# xmcd
#
# Track frame offsets: 
#        150
#        35950
#        44075
#        60600
#        76950
#        87287
#        103512
#        119962
#        134275
#        148625
#        166725
#        188800
#        201687
#        225562
#        237887
#        245375
#
# Disc length: 3482 seconds
#
# Revision: 3
# Processed by: cddbd v1.5.2PL0 Copyright (c) Steve Scherf et al.
# Submitted via: ExactAudioCopy v1.1
#
DISCID=ea0d9810
DTITLE=Willie Nelson - In Concert [CD-STB-8851)
DYEAR=1994
DGENRE=Country
TTITLE0=Medley, Funny How Time Slips Away,Crazy.Night Life
TTITLE1=If You Got The Money, I've Got The Time
TTITLE2=Georgia On My Mind
TTITLE3=Stardust
TTITLE4=On The Road Again
TTITLE5=You Were Always On My Mind
TTITLE6=Angel Flying Too Close To the Groud
TTITLE7=Good Hearted Woman
TTITLE8=Blue Eyes Crying In The Rain
TTITLE9=The Redheaded Stranger
TTITLE10=City Of New Orleans
TTITLE11=To All The Girls I've Loved Before
TTITLE12=Till I Gain Control Again
TTITLE13=Seven Spanish Angels
TTITLE14=Luckenbach Texas
TTITLE15=Whiskey River
EXTD=
EXTT0=
EXTT1=
EXTT2=
EXTT3=
EXTT4=
EXTT5=
EXTT6=
EXTT7=
EXTT8=
EXTT9=
EXTT10=
EXTT11=
EXTT12=
EXTT13=
EXTT14=
EXTT15=
PLAYORDER=
